<svg xmlns="http://www.w3.org/2000/svg" xmlns:xlink="http://www.w3.org/1999/xlink" width="1440" zoomAndPan="magnify" viewBox="0 0 1080 299.999988" height="400" preserveAspectRatio="xMidYMid meet" version="1.0"><defs><g/><clipPath id="f441151586"><path d="M 30 49.613281 L 225.632812 49.613281 L 225.632812 245.246094 L 30 245.246094 Z M 30 49.613281 " clip-rule="nonzero"/></clipPath><clipPath id="e78ff4f541"><path d="M 155.835938 175.449219 L 225.585938 175.449219 L 225.585938 245.199219 L 155.835938 245.199219 Z M 155.835938 175.449219 " clip-rule="nonzero"/></clipPath></defs><g clip-path="url(#f441151586)"><path fill="#000000" d="M 30 245.246094 C 138.042969 245.246094 225.632812 157.660156 225.632812 49.613281 L 30 49.613281 Z M 30 245.246094 " fill-opacity="1" fill-rule="nonzero"/></g><g clip-path="url(#e78ff4f541)"><path fill="#000000" d="M 225.632812 175.449219 C 187.085938 175.449219 155.835938 206.699219 155.835938 245.246094 L 225.632812 245.246094 Z M 225.632812 175.449219 " fill-opacity="1" fill-rule="nonzero"/></g><g fill="#000000" fill-opacity="1"><g transform="translate(285.637059, 212.124955)"><g><path d="M 105.953125 0 L 79.390625 0 L 53.328125 -45.21875 L 37.5 -27.9375 L 37.5 0 L 13.875 0 L 13.875 -137.5 L 37.5 -137.5 L 37.5 -53.328125 L 72.859375 -100.390625 L 101.65625 -100.390625 L 70.515625 -60.640625 Z M 105.953125 0 "/></g></g></g><g fill="#000000" fill-opacity="1"><g transform="translate(379.465615, 212.124955)"><g><path d="M 59.46875 3.03125 C 51.851562 3.03125 44.820312 1.664062 38.375 -1.0625 C 31.9375 -3.800781 26.351562 -7.613281 21.625 -12.5 C 16.90625 -17.382812 13.242188 -23.046875 10.640625 -29.484375 C 8.035156 -35.929688 6.734375 -42.835938 6.734375 -50.203125 C 6.734375 -57.554688 8.035156 -64.4375 10.640625 -70.84375 C 13.242188 -77.257812 16.90625 -82.910156 21.625 -87.796875 C 26.351562 -92.679688 31.9375 -96.503906 38.375 -99.265625 C 44.820312 -102.035156 51.890625 -103.421875 59.578125 -103.421875 C 67.316406 -103.421875 74.410156 -102.035156 80.859375 -99.265625 C 87.304688 -96.503906 92.90625 -92.679688 97.65625 -87.796875 C 102.40625 -82.910156 106.082031 -77.257812 108.6875 -70.84375 C 111.289062 -64.4375 112.59375 -57.554688 112.59375 -50.203125 C 112.59375 -42.773438 111.289062 -35.851562 108.6875 -29.4375 C 106.082031 -23.03125 102.40625 -17.382812 97.65625 -12.5 C 92.90625 -7.613281 87.289062 -3.800781 80.8125 -1.0625 C 74.332031 1.664062 67.21875 3.03125 59.46875 3.03125 Z M 59.671875 -18.953125 C 65.335938 -18.953125 70.382812 -20.300781 74.8125 -23 C 79.238281 -25.695312 82.734375 -29.390625 85.296875 -34.078125 C 87.867188 -38.765625 89.15625 -44.140625 89.15625 -50.203125 C 89.15625 -56.253906 87.867188 -61.640625 85.296875 -66.359375 C 82.734375 -71.078125 79.238281 -74.785156 74.8125 -77.484375 C 70.382812 -80.191406 65.335938 -81.546875 59.671875 -81.546875 C 54.066406 -81.546875 49.035156 -80.191406 44.578125 -77.484375 C 40.117188 -74.785156 36.601562 -71.078125 34.03125 -66.359375 C 31.457031 -61.640625 30.171875 -56.253906 30.171875 -50.203125 C 30.171875 -44.140625 31.457031 -38.765625 34.03125 -34.078125 C 36.601562 -29.390625 40.117188 -25.695312 44.578125 -23 C 49.035156 -20.300781 54.066406 -18.953125 59.671875 -18.953125 Z M 59.671875 -18.953125 "/></g></g></g><g fill="#000000" fill-opacity="1"><g transform="translate(485.59856, 212.124955)"><g><path d="M 71.09375 3.03125 C 66.207031 3.03125 61.550781 2.210938 57.125 0.578125 C 52.695312 -1.046875 48.691406 -3.335938 45.109375 -6.296875 C 41.535156 -9.265625 38.609375 -12.796875 36.328125 -16.890625 L 36.328125 0 L 13.875 0 L 13.875 -137.5 L 37.5 -137.5 L 37.5 -97.171875 L 36.921875 -83.984375 C 39.128906 -87.890625 41.957031 -91.289062 45.40625 -94.1875 C 48.863281 -97.082031 52.753906 -99.328125 57.078125 -100.921875 C 61.410156 -102.523438 65.984375 -103.328125 70.796875 -103.328125 C 77.960938 -103.328125 84.523438 -101.941406 90.484375 -99.171875 C 96.441406 -96.398438 101.597656 -92.585938 105.953125 -87.734375 C 110.316406 -82.890625 113.703125 -77.257812 116.109375 -70.84375 C 118.523438 -64.4375 119.734375 -57.554688 119.734375 -50.203125 C 119.734375 -42.835938 118.523438 -35.929688 116.109375 -29.484375 C 113.703125 -23.046875 110.300781 -17.382812 105.90625 -12.5 C 101.507812 -7.613281 96.363281 -3.800781 90.46875 -1.0625 C 84.582031 1.664062 78.125 3.03125 71.09375 3.03125 Z M 66.796875 -18.75 C 72.140625 -18.75 77.039062 -20.019531 81.5 -22.5625 C 85.957031 -25.101562 89.535156 -28.734375 92.234375 -33.453125 C 94.941406 -38.171875 96.296875 -43.753906 96.296875 -50.203125 C 96.296875 -56.515625 94.957031 -62.015625 92.28125 -66.703125 C 89.613281 -71.390625 86.050781 -75.035156 81.59375 -77.640625 C 77.132812 -80.242188 72.171875 -81.546875 66.703125 -81.546875 C 62.597656 -81.546875 58.769531 -80.75 55.21875 -79.15625 C 51.675781 -77.5625 48.550781 -75.332031 45.84375 -72.46875 C 43.144531 -69.601562 41.03125 -66.28125 39.5 -62.5 C 37.96875 -58.726562 37.203125 -54.628906 37.203125 -50.203125 C 37.203125 -45.640625 37.984375 -41.4375 39.546875 -37.59375 C 41.109375 -33.757812 43.253906 -30.425781 45.984375 -27.59375 C 48.722656 -24.757812 51.882812 -22.578125 55.46875 -21.046875 C 59.050781 -19.515625 62.828125 -18.75 66.796875 -18.75 Z M 66.796875 -18.75 "/></g></g></g><g fill="#000000" fill-opacity="1"><g transform="translate(601.496874, 212.124955)"><g><path d="M 58.984375 3.03125 C 52.273438 3.03125 46.054688 2.097656 40.328125 0.234375 C 34.597656 -1.617188 29.582031 -4.53125 25.28125 -8.5 C 20.988281 -12.46875 17.65625 -17.609375 15.28125 -23.921875 C 12.90625 -30.242188 11.71875 -37.863281 11.71875 -46.78125 L 11.71875 -100.390625 L 35.15625 -100.390625 L 35.15625 -47.46875 C 35.15625 -38.21875 37.140625 -31.148438 41.109375 -26.265625 C 45.085938 -21.390625 51.015625 -18.953125 58.890625 -18.953125 C 66.828125 -18.953125 72.75 -21.40625 76.65625 -26.3125 C 80.5625 -31.226562 82.515625 -38.28125 82.515625 -47.46875 L 82.515625 -100.390625 L 106.0625 -100.390625 L 106.0625 -46.78125 C 106.0625 -37.863281 104.867188 -30.242188 102.484375 -23.921875 C 100.109375 -17.609375 96.769531 -12.46875 92.46875 -8.5 C 88.175781 -4.53125 83.179688 -1.617188 77.484375 0.234375 C 71.796875 2.097656 65.628906 3.03125 58.984375 3.03125 Z M 58.984375 3.03125 "/></g></g></g><g fill="#000000" fill-opacity="1"><g transform="translate(706.067323, 212.124955)"><g><path d="M 37.5 0 L 13.875 0 L 13.875 -100.390625 L 36.328125 -100.390625 L 36.328125 -84.765625 C 38.285156 -88.410156 40.957031 -91.632812 44.34375 -94.4375 C 47.726562 -97.238281 51.664062 -99.4375 56.15625 -101.03125 C 60.644531 -102.625 65.460938 -103.421875 70.609375 -103.421875 C 84.085938 -103.421875 94.175781 -99.140625 100.875 -90.578125 C 107.582031 -82.015625 110.9375 -69.859375 110.9375 -54.109375 L 110.9375 0 L 87.3125 0 L 87.3125 -53.609375 C 87.3125 -63.578125 85.226562 -70.738281 81.0625 -75.09375 C 76.894531 -79.457031 71.226562 -81.640625 64.0625 -81.640625 C 59.4375 -81.640625 55.101562 -80.46875 51.0625 -78.125 C 47.03125 -75.78125 43.757812 -72.363281 41.25 -67.875 C 38.75 -63.382812 37.5 -57.847656 37.5 -51.265625 Z M 37.5 0 "/></g></g></g></svg>